<svg width="105" height="105" viewBox="0 0 105 105" fill="none" xmlns="http://www.w3.org/2000/svg">
<path d="M6.54135 20.6924C5.9056 21.3486 5.84408 21.6357 6.1517 22.4355C6.39779 23.1123 31.3148 39.7852 32.0736 39.7852C32.3402 39.7852 33.6117 39.293 34.8831 38.6777C37.3646 37.4883 39.5179 36.8115 41.5277 36.5859L42.7581 36.4424L40.7689 38.5752C36.9544 42.6768 36.5033 43.4766 36.9544 45.1172C37.2826 46.3271 38.6156 47.6191 40.1536 48.2139C41.6712 48.8086 44.1117 48.8496 45.7318 48.3164C47.8646 47.5986 50.3255 46.2041 51.474 45.0762C51.8841 44.666 52.2738 44.543 53.3607 44.4404L54.7347 44.3174L55.2269 45.4043C56.1908 47.4756 57.8519 49.793 59.472 51.3311C60.7435 52.5205 61.5433 53.0742 63.43 54.0176C67.0599 55.8018 70.013 58.0166 74.3607 62.2002C78.2161 65.9121 78.6878 67.4912 76.2679 68.7217C75.5706 69.0703 75.3861 69.0908 75.099 68.8652C74.9144 68.7217 72.556 66.5479 69.849 64.0254C65.2552 59.7598 64.9066 59.4727 64.1683 59.4727C63.2454 59.4727 62.5482 60.1904 62.5482 61.1543C62.5482 61.8721 62.6712 61.9951 68.4544 67.3682C70.8333 69.583 72.8021 71.5723 72.8021 71.7568C72.8021 72.4336 71.8792 73.9307 71.305 74.1973C70.095 74.7715 69.6849 74.5049 64.1683 69.5215C61.2972 66.9375 58.7542 64.7637 58.4876 64.7021C57.4417 64.4355 56.2113 65.6865 56.4779 66.7529C56.5599 67.0605 58.6107 69.0498 61.6253 71.7979C64.3939 74.2998 66.6497 76.4736 66.6497 76.6377C66.6497 77.499 64.4349 78.9551 63.1019 78.9551C62.8968 78.9551 60.7025 77.0068 58.2005 74.6279L53.6683 70.3008L52.8275 70.3828C52.1097 70.4648 51.8841 70.3828 51.2894 69.7881C50.346 68.8857 49.0745 68.3115 47.8441 68.2295C47.0648 68.1885 46.6341 68.0244 46.0189 67.5322C44.8499 66.6299 43.2093 65.8506 42.1224 65.6865C41.3431 65.584 40.9945 65.3789 40.1331 64.5176C38.6156 63 37.3851 62.4668 35.6009 62.4873C34.2269 62.5078 34.1038 62.4668 33.3861 61.8311C31.3353 59.9648 28.9154 59.8008 26.8236 61.4004L25.9007 62.0977L17.1029 57.1758C7.56674 51.8232 7.34115 51.7207 6.43881 52.7871C5.82357 53.4844 5.82357 54.1816 6.4183 54.8379C6.66439 55.125 10.7454 57.5244 15.4828 60.1699C23.4398 64.6201 24.096 65.0098 23.9935 65.4609C23.7474 66.5889 23.9115 69.0088 24.2806 69.7266C24.9163 70.916 25.9827 72.1055 27.0697 72.8027C27.6234 73.1719 28.0951 73.6025 28.0951 73.8076C28.0951 74.3613 29.2435 76.1865 29.9818 76.8018C30.7406 77.458 33.3451 78.75 33.8577 78.75C34.0423 78.75 34.8011 79.3447 35.5189 80.0625C36.6468 81.1699 37.057 81.4365 38.2464 81.8057C39.0052 82.0518 39.9486 82.2363 40.3177 82.2363C40.9124 82.2363 41.2201 82.4209 42.1019 83.3232C43.2298 84.4717 44.2347 84.9023 45.8753 84.9023C47.3519 84.9023 49.3617 83.5898 50.2025 82.1133C50.387 81.7646 50.5101 81.8057 51.515 82.4824C55.9036 85.374 59.431 85.5381 62.3021 82.9746C62.8968 82.4414 63.307 82.2773 64.1888 82.1748C66.4652 81.9082 68.6185 80.4111 69.4593 78.4834C69.7669 77.7861 69.8695 77.7246 70.6077 77.7246C72.0433 77.7246 73.0482 77.2939 74.1556 76.1865C75.1195 75.2227 75.4066 74.71 76.1859 72.4336C76.2269 72.3105 76.4115 72.1875 76.596 72.1875C77.7445 72.1875 80.1234 70.2188 80.7181 68.7832C81.0667 67.9629 81.0872 65.9326 80.7796 65.0303C80.6566 64.6611 80.595 64.3125 80.6771 64.251C80.7386 64.1689 84.6966 63.123 89.4749 61.8926C97.0423 59.9648 98.1908 59.6162 98.6009 59.165C98.847 58.8574 99.0521 58.4062 99.0521 58.1191C99.0521 57.5449 98.0472 56.3965 97.555 56.3965C97.391 56.3965 93.1663 57.4424 88.1624 58.7344C83.1585 60.0264 78.9134 61.1133 78.7288 61.1543C78.5238 61.1953 77.4368 60.3545 76.0628 59.083C71.5101 54.9199 68.5159 52.7256 65.1117 51.0439C63.9017 50.4697 62.5482 49.6084 61.8714 48.9932C60.4769 47.7422 58.8978 45.4043 58.0159 43.292C57.1136 41.0771 56.888 40.9131 55.2064 40.9541C54.4476 40.9746 53.0531 41.0566 52.1097 41.1387L50.3665 41.2617L49.3411 42.3486C47.1263 44.6045 43.0658 45.9375 41.2201 44.9736C40.8304 44.7686 40.4818 44.4609 40.4408 44.2969C40.4202 44.1328 41.1585 43.1484 42.1224 42.123C47.0443 36.75 51.2894 33.7969 53.5042 34.166C55.8831 34.5557 60.0872 36.2783 66.2601 39.3955C68.7005 40.626 70.9154 41.6309 71.2025 41.6309C71.4896 41.6309 77.6624 39.2725 84.9222 36.4014C98.6214 30.9873 99.0521 30.7822 99.0521 29.6543C99.0521 29.0186 98.3753 28.1777 97.7396 28.0137C97.3704 27.9316 93.8021 29.2441 84.2865 33.0176L71.346 38.1445L67.4085 36.1758C62.7738 33.8379 59.6566 32.4844 56.8675 31.5615C55.2269 31.0283 54.5091 30.8848 53.012 30.8848C51.2894 30.8643 51.0638 30.9258 49.5872 31.623C48.7259 32.0332 47.68 32.5869 47.2904 32.8535C46.6136 33.3252 46.4701 33.3457 45.0755 33.1611C42.0404 32.7715 37.6517 33.6123 34.0013 35.3145L32.1966 36.1553L20.1995 28.1162C12.0374 22.6406 8.05892 20.0977 7.68978 20.0977C7.36166 20.0977 6.91049 20.3438 6.54135 20.6924ZM31.1507 64.2715C31.3148 64.4561 31.1302 64.8252 30.5355 65.6455C30.0638 66.2607 29.4076 67.3066 29.0794 67.9834C28.3001 69.5215 28.3822 69.46 27.89 69.0088C27.1722 68.3525 26.9876 67.3682 27.3773 66.3018C27.7874 65.2559 28.7718 64.0254 29.4076 63.7793C29.8792 63.6152 30.8226 63.8818 31.1507 64.2715ZM37.0365 66.2607C37.4261 66.4863 37.7337 66.7324 37.7337 66.7939C37.7337 66.835 37.4261 67.2656 37.0365 67.7373C35.847 69.2139 34.514 72.29 34.1449 74.4844C34.0218 75.0791 33.9398 75.2021 33.6527 75.0996C32.6683 74.6895 31.93 74.0537 31.5609 73.2949C31.2122 72.5566 31.1917 72.3105 31.3763 71.4697C31.7249 69.8906 32.6273 68.2705 33.8372 66.999C35.1497 65.666 35.8265 65.502 37.0365 66.2607ZM42.6146 69.4189L43.722 69.9316L43.2913 70.5879C41.8968 72.7002 40.9534 75.2637 40.7074 77.5811C40.5638 78.9346 40.5433 78.9551 40.0101 78.832C38.3285 78.4219 37.6107 77.7861 37.4056 76.4531C37.1185 74.792 39.0257 70.0547 40.2562 69.2959C41.097 68.8037 41.3021 68.8037 42.6146 69.4189ZM48.7874 72.1055C49.1566 72.3926 49.5257 72.8027 49.6283 72.9873C50.0794 73.8486 47.4954 80.6982 46.5316 81.2109C46.306 81.334 45.7933 81.416 45.3626 81.375C44.3783 81.293 44.0911 80.7393 44.0911 78.8525C44.0911 77.0889 44.4808 75.4688 45.3421 73.8076C46.4701 71.5723 47.5365 71.0391 48.7874 72.1055ZM56.7034 77.8477L59.7386 80.7598L59.0618 81.1084C57.6673 81.8262 54.7757 80.9238 52.6429 79.0986L51.8636 78.4424L52.4173 76.4531C52.93 74.6895 53.012 74.5049 53.3197 74.71C53.5042 74.8535 55.0218 76.2686 56.7034 77.8477Z" fill="#1C2C57"/>
</svg>
